<?xml version="1.0" encoding="iso-8859-1"?>
<!-- Generator: Adobe Illustrator 19.0.0, SVG Export Plug-In . SVG Version: 6.00 Build 0)  -->
<svg version="1.1" id="Layer_1" xmlns="http://www.w3.org/2000/svg" xmlns:xlink="http://www.w3.org/1999/xlink" x="0px" y="0px"
	 viewBox="0 0 272.578 272.578" style="enable-background:new 0 0 272.578 272.578;" xml:space="preserve"  height="20">
<g>
	<path style="fill:#FFFFFF;" d="M181.357,241.567H43.535c-11.046,0-20-8.954-20-20V83.5h177.822v138.067
		C201.357,232.613,192.402,241.567,181.357,241.567z"/>
	<path style="fill:#FFFFFF;" d="M237.043,115.2h-35.687l0,0v24c2.963,0,20.72,0,23.687,0v46.666h-23.687l0,0v24
		c4.463,0,31.217,0,35.687,0c6.627,0,12-5.373,12-12V127.2C249.043,120.574,243.67,115.2,237.043,115.2z"/>
	<rect x="38.14" y="241.567" style="fill:#C7E9F4;" width="148.611" height="23.511"/>
	<g>
		<path style="fill:#32CD3C;" d="M237.043,107.7h-28.186V83.5c0-4.143-3.357-7.5-7.5-7.5H23.535c-4.143,0-7.5,3.357-7.5,7.5v138.066
			c0,10.506,5.924,19.651,14.605,24.28v19.232c0,4.143,3.357,7.5,7.5,7.5h148.61c4.143,0,7.5-3.357,7.5-7.5v-19.232
			c8.681-4.629,14.605-13.774,14.605-24.28v-4.2h28.186c10.752,0,19.5-8.748,19.5-19.5V127.2
			C256.543,116.448,247.795,107.7,237.043,107.7z M208.857,146.7h8.686v31.666h-8.686V146.7z M31.035,91h162.821
			c0,4.936,0,124.534,0,130.566c0,6.893-5.607,12.5-12.5,12.5H43.535c-6.893,0-12.5-5.607-12.5-12.5V91z M179.251,257.578H45.641
			v-8.512h133.61V257.578z M241.543,197.866c0,2.482-2.018,4.5-4.5,4.5h-28.186v-9h16.186c4.143,0,7.5-3.357,7.5-7.5V139.2
			c0-4.143-3.357-7.5-7.5-7.5h-16.186v-9h28.186c2.482,0,4.5,2.019,4.5,4.5V197.866z"/>
		<path style="fill:#32CD3C;" d="M112.445,68c4.143,0,7.5-3.357,7.5-7.5v-53c0-4.142-3.357-7.5-7.5-7.5c-4.143,0-7.5,3.358-7.5,7.5
			v53C104.945,64.643,108.303,68,112.445,68z"/>
		<path style="fill:#32CD3C;" d="M142.445,68c4.143,0,7.5-3.357,7.5-7.5V28.167c0-4.142-3.357-7.5-7.5-7.5
			c-4.143,0-7.5,3.358-7.5,7.5V60.5C134.945,64.643,138.303,68,142.445,68z"/>
		<path style="fill:#32CD3C;" d="M82.445,68c4.143,0,7.5-3.357,7.5-7.5V28.167c0-4.142-3.357-7.5-7.5-7.5
			c-4.143,0-7.5,3.358-7.5,7.5V60.5C74.945,64.643,78.303,68,82.445,68z"/>
	</g>
    </g>

</svg>
